<?xml version="1.0" standalone="no"?>
<!DOCTYPE svg PUBLIC "-//W3C//DTD SVG 20010904//EN"
 "http://www.w3.org/TR/2001/REC-SVG-20010904/DTD/svg10.dtd">
<svg version="1.0" xmlns="http://www.w3.org/2000/svg"
 width="300.000000pt" height="300.000000pt" viewBox="0 0 300.000000 300.000000"
 preserveAspectRatio="xMidYMid meet">
<metadata>
Created by potrace 1.10, written by Peter Selinger 2001-2011
</metadata>
<g transform="translate(0.000000,300.000000) scale(0.100000,-0.100000)"
fill="#000000" stroke="none">
<path d="M2054 1836 c-11 -29 1 -61 23 -64 26 -4 47 29 38 58 -7 24 -53 28
-61 6z m44 -24 c2 -15 -2 -22 -12 -22 -11 0 -16 9 -16 26 0 31 23 28 28 -4z"/>
<path d="M2144 1831 c4 -5 2 -21 -4 -35 -5 -14 -5 -28 -1 -31 5 -2 12 6 15 19
3 13 9 31 12 40 4 11 1 16 -11 16 -9 0 -14 -4 -11 -9z"/>
<path d="M2186 1795 c-21 -33 -20 -40 8 -53 20 -9 25 -8 30 5 4 9 1 21 -5 27
-9 8 -10 7 -6 -6 4 -10 2 -18 -3 -18 -14 0 -21 17 -14 34 7 19 30 21 37 4 2
-7 8 -9 13 -5 8 8 -21 37 -37 37 -4 0 -14 -11 -23 -25z"/>
<path d="M2253 1744 c-23 -25 -30 -44 -15 -44 4 0 13 9 20 20 7 11 19 20 28
20 9 0 14 5 12 12 -7 20 -22 17 -45 -8z"/>
<path d="M2310 1717 c0 -9 -11 -23 -25 -29 -14 -6 -25 -15 -25 -20 0 -12 12
-9 34 7 14 11 23 12 33 4 19 -16 18 11 -2 37 -13 17 -14 17 -15 1z"/>
<path d="M950 1494 c0 -141 -1 -145 -20 -139 -17 5 -20 2 -20 -27 l0 -33 70 0
70 0 0 32 c0 26 -3 30 -20 26 -19 -5 -20 0 -20 141 l0 146 -30 0 -30 0 0 -146z"/>
<path d="M1060 1510 l0 -130 36 0 35 0 -7 70 c-4 39 -3 70 2 69 5 0 41 -49 80
-107 60 -90 76 -108 103 -113 23 -5 34 -3 38 7 3 8 3 85 1 171 l-4 158 -33 3
-34 3 5 -115 c2 -64 2 -116 -1 -115 -3 0 -40 52 -81 114 -70 107 -77 114 -107
115 l-33 0 0 -130z"/>
<path d="M1360 1610 l0 -30 100 0 100 0 0 30 0 30 -100 0 -100 0 0 -30z"/>
<path d="M1580 1475 c0 -91 0 -168 0 -171 0 -3 36 -6 80 -7 l80 -2 0 33 c0 32
0 32 -50 32 l-50 0 0 40 0 40 70 0 70 0 0 30 0 30 -70 0 -70 0 0 40 0 41 50
-7 50 -7 0 37 0 36 -80 0 -80 0 0 -165z"/>
<path d="M1790 1510 l0 -130 33 0 33 0 -4 70 c-2 39 0 70 4 69 5 0 41 -48 79
-107 60 -91 75 -108 102 -113 18 -4 35 -4 38 -1 3 3 5 81 5 174 l0 168 -36 0
-35 0 3 -115 c2 -63 1 -115 -2 -115 -3 0 -14 15 -25 33 -10 17 -45 69 -77 115
-51 71 -63 82 -88 82 l-30 0 0 -130z"/>
<path d="M2288 1627 c7 -8 9 -22 6 -32 -4 -10 -3 -16 2 -14 75 35 80 52 19 57
-33 3 -37 1 -27 -11z"/>
<path d="M2286 1554 c-9 -23 -7 -34 4 -34 6 0 10 7 10 15 0 11 11 15 38 15 27
0 33 3 22 10 -24 15 -67 12 -74 -6z"/>
<path d="M1430 1401 l0 -109 33 3 32 2 3 107 3 106 -36 0 -35 0 0 -109z"/>
</g>
</svg>
